<?xml version="1.0" encoding="UTF-8"?><svg id="Layer_2" xmlns="http://www.w3.org/2000/svg" viewBox="0 0 150 180"><defs><style>.cls-1{fill:none;}.cls-1,.cls-2,.cls-3,.cls-4,.cls-5{stroke-width:0px;}.cls-2{fill:#231f20;}.cls-3,.cls-4{fill:#8a002f;}.cls-3,.cls-5{fill-rule:evenodd;}.cls-6{stroke:#fff;stroke-miterlimit:10;stroke-width:2.83px;}.cls-6,.cls-5{fill:#efaf13;}</style></defs><g id="Layer_1-2"><rect class="cls-1" width="150" height="180"/><path class="cls-2" d="m36.91,173.08l-.22-1.49h-.08c-.83,1.05-2.24,1.8-3.98,1.8-2.71,0-4.23-1.96-4.23-4.01,0-3.4,3.02-5.12,8-5.09v-.22c0-.88-.36-2.35-2.74-2.35-1.33,0-2.71.42-3.62,1l-.66-2.21c1-.61,2.74-1.19,4.87-1.19,4.32,0,5.56,2.74,5.56,5.67v4.87c0,1.22.06,2.41.19,3.24h-3.07Zm-.44-6.58c-2.41-.06-4.7.47-4.7,2.52,0,1.33.86,1.94,1.94,1.94,1.36,0,2.35-.89,2.66-1.85.08-.25.11-.53.11-.75v-1.85Z"/><path class="cls-2" d="m53.29,172.67c-.72.33-2.13.69-3.82.69-4.21,0-6.94-2.68-6.94-6.86s2.77-7.19,7.5-7.19c1.24,0,2.52.28,3.29.64l-.61,2.54c-.55-.25-1.36-.53-2.57-.53-2.6,0-4.15,1.91-4.12,4.37,0,2.77,1.8,4.34,4.12,4.34,1.19,0,2.02-.25,2.68-.53l.47,2.52Z"/><path class="cls-2" d="m57.96,167.3c.08,2.43,1.99,3.49,4.15,3.49,1.58,0,2.71-.22,3.73-.61l.5,2.35c-1.16.47-2.77.83-4.7.83-4.37,0-6.94-2.68-6.94-6.8,0-3.74,2.27-7.25,6.58-7.25s5.81,3.6,5.81,6.56c0,.64-.06,1.13-.11,1.44h-9.02Zm5.92-2.38c.03-1.25-.53-3.29-2.79-3.29-2.1,0-2.99,1.91-3.13,3.29h5.92Z"/><path class="cls-2" d="m69.83,163.96c0-1.83-.03-3.13-.11-4.34h2.96l.11,2.57h.11c.66-1.91,2.24-2.88,3.68-2.88.33,0,.53.03.8.08v3.21c-.28-.06-.58-.11-1-.11-1.63,0-2.74,1.05-3.04,2.57-.06.3-.11.66-.11,1.05v6.97h-3.4v-9.13Z"/><path class="cls-2" d="m82.44,159.61l2.19,6.83c.39,1.19.66,2.27.91,3.38h.08c.25-1.11.55-2.16.91-3.38l2.13-6.83h3.6l-5.15,13.47h-3.35l-5.01-13.47h3.68Z"/><path class="cls-2" d="m106.79,166.22c0,4.95-3.49,7.17-6.92,7.17-3.82,0-6.75-2.63-6.75-6.94s2.9-7.14,6.97-7.14,6.7,2.82,6.7,6.92Zm-10.15.14c0,2.6,1.27,4.56,3.35,4.56,1.94,0,3.29-1.91,3.29-4.62,0-2.1-.94-4.51-3.26-4.51s-3.38,2.32-3.38,4.56Z"/><path class="cls-4" d="m17.74,139.08V63.77c0-6.74,5.47-12.21,12.21-12.21h11.03c6.74,0,12.21,5.47,12.21,12.21v35.43"/><rect class="cls-4" x="37.38" y="65.02" width="84.31" height="59.61" rx="14.5" ry="14.5"/><path class="cls-6" d="m109.18,151.53H32.85c-8.34,0-15.11-6.76-15.11-15.11l7.97-42.81c0-8.34,6.76-15.11,15.11-15.11h76.33c8.34,0,15.11,6.76,15.11,15.11l-7.97,42.81c0,8.34-6.76,15.11-15.11,15.11Z"/><path class="cls-3" d="m70.11,98.99c-.68.4-1.32.87-1.96,1.33-4.42,3.14-9.37,6.82-13.79,9.96-.62.44-1.11.73-1.27,1-.26.46.13.8,1,.8,1.1,0,1.51,0,2.88,0,1,0,1.99.88,1.99,1.88v14.48c.21,1.33,1.22,2.34,2.41,2.34h21.6c1.19,0,2.19-1.01,2.41-2.34v-14.48c0-1,.99-1.88,1.99-1.88,1.36,0,1.77,0,2.88,0,.88,0,1.27-.35,1-.8-.16-.27-.64-.55-1.27-1-4.42-3.14-9.37-6.82-13.79-9.96-.64-.46-1.28-.93-1.96-1.33-1.33-.77-2.79-.77-4.12,0"/><path class="cls-5" d="m81.05,103.83c-.51-.37-1.03-.75-1.54-1.12v2.74c0,.57.05.91-.6.73-.71-.26-1.54-.36-2.43-.26-2.56.29-4.63,2.15-4.63,4.15s2.07,3.38,4.63,3.08c2.42-.28,4.58-1.78,4.58-4.63v-4.69Z"/><path class="cls-3" d="m79.52,102.71v-8.07c0-1.06.8-1.38,1.67-1.56l8.84-1.75v4.91c-2.63.53-5.26,1.06-7.89,1.59-.58.12-1.1.5-1.1,1.15v4.85c-.5-.37-1.02-.75-1.52-1.12"/></g></svg>