<?xml version="1.0" encoding="UTF-8"?><svg id="Layer_2" xmlns="http://www.w3.org/2000/svg" viewBox="0 0 183.78 52.2"><defs><style>.cls-1{fill:#8b0030;}.cls-1,.cls-2{fill-rule:evenodd;stroke-width:0px;}.cls-2{fill:#f1b80e;}</style></defs><g id="Camada_1"><path class="cls-1" d="m22.62,10.12c-.9.52-1.74,1.15-2.59,1.76-5.85,4.16-12.4,9.02-18.25,13.18-.83.59-1.47.96-1.68,1.32-.35.6.16,1.06,1.33,1.06,1.46,0,2.01.01,3.81,0,1.32,0,2.63,1.17,2.63,2.49v19.16c.29,1.76,1.61,3.1,3.19,3.1h28.58c1.58,0,2.9-1.34,3.19-3.1v-19.16c0-1.32,1.31-2.49,2.63-2.49,1.81,0,2.35,0,3.81,0,1.16,0,1.68-.46,1.33-1.06-.21-.36-.85-.73-1.68-1.32-5.85-4.16-12.4-9.02-18.25-13.18-.85-.6-1.69-1.23-2.59-1.76-1.76-1.02-3.69-1.02-5.45,0"/><path class="cls-2" d="m37.11,16.52c-.68-.49-1.36-.99-2.03-1.47v3.62c0,.75.07,1.2-.8.97-.94-.35-2.04-.48-3.22-.34-3.38.39-6.12,2.85-6.12,5.49s2.74,4.47,6.12,4.08c3.21-.37,6.06-2.35,6.06-6.13v-6.21Z"/><path class="cls-1" d="m35.08,15.05V4.37c0-1.4,1.05-1.83,2.22-2.06l11.69-2.31v6.5c-3.48.7-6.96,1.4-10.44,2.1-.77.15-1.45.66-1.45,1.51v6.41c-.67-.49-1.34-.99-2.02-1.47"/><path class="cls-1" d="m71.82,44.83c.12.08.3.18.52.29.22.11.48.23.78.34.3.11.61.21.95.28.34.07.68.11,1.03.11.74,0,1.26-.17,1.55-.51.29-.34.43-.78.43-1.31,0-.28-.04-.51-.11-.7-.08-.19-.19-.36-.34-.5-.15-.14-.34-.26-.56-.38-.22-.11-.47-.23-.75-.36l-.85-.39c-.59-.27-1.09-.58-1.49-.91-.4-.33-.72-.7-.95-1.11-.24-.41-.4-.85-.51-1.35-.1-.49-.16-1.04-.16-1.64,0-.79.13-1.51.39-2.14.26-.63.62-1.16,1.09-1.58.46-.42,1.01-.74,1.66-.97.64-.23,1.35-.34,2.12-.34.55,0,1.15.04,1.79.13.64.09,1.26.27,1.85.55l-.17,3.33c-.35-.21-.79-.4-1.32-.58-.54-.18-1.09-.27-1.66-.27s-1.03.14-1.37.41c-.33.28-.5.67-.5,1.19,0,.23.03.42.08.58.05.16.14.31.27.46.12.15.29.29.51.44.21.15.48.3.8.46l1.74.92c.33.18.64.38.93.62.29.23.55.52.78.85.23.33.41.73.54,1.19.13.46.2,1.01.2,1.64,0,.92-.14,1.74-.4,2.44-.27.7-.65,1.29-1.15,1.76-.5.47-1.09.82-1.79,1.06-.7.24-1.47.35-2.31.35s-1.64-.08-2.31-.24c-.67-.16-1.18-.3-1.54-.41l.23-3.72Zm18.59.51h-3.76l-.83,3.57h-3.3l4.26-16.84h3.8l4.07,16.84h-3.56l-.68-3.57Zm-1.76-9.84h-.04l-1.38,6.61h2.53l-1.12-6.61Zm17.58,11.34c0,.35,0,.69.02,1.04.01.34.04.69.06,1.03h-3.48c-.03-.32-.05-.63-.07-.94-.02-.31-.03-.63-.03-.94h-.04c-.39.79-.82,1.34-1.28,1.63-.46.29-.96.44-1.52.44-3.26,0-3.83-3.76-3.83-6.32,0-1.96.86-5.44,3.9-5.76,1.06-.11,2.1.31,2.62,1.24h.04v-6.21h3.6v14.79Zm-6.48-3.89c0,.95,0,2.94,1.42,2.94,1.33,0,1.42-2.07,1.42-2.94s-.09-2.79-1.42-2.79c-1.43,0-1.42,1.84-1.42,2.79Zm12.47.29c0,.42.02.83.05,1.23.03.39.1.75.21,1.05.1.31.25.55.44.73.19.18.45.27.77.27s.57-.09.77-.27c.19-.18.34-.43.44-.73.1-.31.17-.66.21-1.05.03-.39.05-.8.05-1.23s-.02-.81-.05-1.22c-.04-.4-.11-.76-.21-1.06-.1-.31-.25-.56-.44-.75-.19-.19-.45-.29-.77-.29s-.57.1-.77.29c-.19.19-.34.44-.44.75-.1.31-.17.66-.21,1.06-.03.4-.05.81-.05,1.22Zm-3.9,0c0-.77.09-1.52.28-2.25.19-.72.49-1.36.92-1.92.43-.56.98-1,1.67-1.33.68-.33,1.52-.49,2.5-.49s1.81.16,2.5.49c.68.33,1.24.77,1.66,1.33.42.55.73,1.19.92,1.92.19.72.29,1.47.29,2.25s-.1,1.52-.29,2.25c-.19.72-.5,1.36-.92,1.91-.42.55-.97.98-1.66,1.31-.68.33-1.52.49-2.5.49s-1.81-.17-2.5-.49c-.68-.33-1.24-.77-1.67-1.31-.43-.55-.74-1.18-.92-1.91-.19-.72-.28-1.47-.28-2.25Zm30.49-1.16h-3.03v6.83h-3.9v-16.84h3.9v6.54h3.03v-6.54h3.89v16.84h-3.89v-6.83Zm5.9-1.58c0-1.56.19-2.89.56-3.99.37-1.1.86-2,1.47-2.7.61-.7,1.3-1.21,2.06-1.53.77-.32,1.54-.48,2.33-.48s1.56.16,2.33.48c.77.32,1.45.83,2.06,1.53.61.7,1.1,1.6,1.47,2.7.37,1.1.56,2.43.56,3.99s-.19,2.89-.56,3.99c-.37,1.1-.87,2-1.47,2.7-.61.7-1.3,1.21-2.06,1.53-.77.32-1.54.48-2.33.48s-1.56-.16-2.33-.48c-.77-.32-1.45-.83-2.06-1.53-.61-.7-1.1-1.6-1.47-2.7-.37-1.1-.56-2.43-.56-3.99Zm3.96,0c0,1.67.2,3,.6,3.99.4.99,1.01,1.48,1.82,1.48h.02c.81,0,1.42-.5,1.82-1.48.4-.99.6-2.32.6-3.99,0-.82-.05-1.57-.14-2.24-.1-.68-.25-1.25-.45-1.72-.2-.48-.45-.84-.75-1.11-.31-.27-.66-.4-1.08-.4s-.77.13-1.08.4c-.31.26-.56.63-.77,1.11-.21.47-.36,1.05-.46,1.72-.1.67-.14,1.42-.14,2.24Zm15.51-1.47c.41,0,.78-.16,1.11-.5.32-.33.48-.77.48-1.32,0-.58-.13-1.06-.39-1.43-.26-.37-.68-.56-1.27-.56h-1.08v3.81h1.14Zm.87,5.07c-.1-.41-.21-.73-.33-.97-.12-.24-.25-.43-.39-.55-.14-.12-.29-.2-.45-.24-.16-.04-.31-.06-.47-.06h-.21v6.62h-3.89v-16.94h5.78c1.46,0,2.59.37,3.39,1.1.79.74,1.19,1.89,1.19,3.46,0,.63-.09,1.17-.26,1.61-.17.44-.39.82-.66,1.13-.27.31-.57.55-.89.73-.32.18-.64.32-.96.41v.07c.21.08.4.18.57.29.17.11.34.28.5.51.16.23.31.53.45.9.14.37.28.85.44,1.43l1.3,5.29h-4.02l-1.08-4.8Zm5.88-3.61c0-1.56.19-2.89.56-3.99.38-1.1.87-2,1.47-2.7.61-.7,1.29-1.21,2.06-1.53.77-.32,1.54-.48,2.33-.48s1.56.16,2.33.48c.77.32,1.45.83,2.06,1.53.61.7,1.1,1.6,1.47,2.7.37,1.1.56,2.43.56,3.99s-.18,2.89-.56,3.99c-.37,1.1-.86,2-1.47,2.7-.61.7-1.29,1.21-2.06,1.53-.77.32-1.54.48-2.33.48s-1.56-.16-2.33-.48c-.77-.32-1.46-.83-2.06-1.53-.61-.7-1.1-1.6-1.47-2.7-.37-1.1-.56-2.43-.56-3.99Zm3.96,0c0,1.67.2,3,.6,3.99.4.99,1.01,1.48,1.82,1.48h.02c.81,0,1.42-.5,1.82-1.48.4-.99.6-2.32.6-3.99,0-.82-.05-1.57-.14-2.24-.1-.68-.24-1.25-.45-1.72-.2-.48-.45-.84-.76-1.11-.3-.27-.66-.4-1.08-.4s-.77.13-1.08.4c-.3.26-.56.63-.77,1.11-.21.47-.36,1.05-.45,1.72-.1.67-.15,1.42-.15,2.24Zm-109.3,5.09h-3.52l-.7,3.33h-3.55l4.26-16.84h3.8l4.07,16.84h-3.68l-.68-3.33Zm-1.64-8.37h-.04l-1.01,5.26h1.92l-.87-5.26Zm65.67,11.46c-2.7,1.11-5.41.88-7.25-1.56-.56-.74-1-1.67-1.32-2.78-.32-1.11-.48-2.41-.48-3.9,0-1.25.14-2.4.4-3.46.27-1.06.67-1.98,1.2-2.74.53-.77,1.2-1.37,1.99-1.8,1.58-.85,3.79-1.04,5.38.01l.06,3.38c-3.74-1.63-5.12.91-5.16,4.3-.04,3.62,1.38,6.83,5.15,4.96l.03,3.59Zm-73.09,0c-2.7,1.11-5.41.88-7.25-1.56-.56-.74-1-1.67-1.32-2.78-.32-1.11-.48-2.41-.48-3.9,0-1.25.13-2.4.4-3.46.27-1.06.67-1.98,1.2-2.74.53-.77,1.2-1.37,1.99-1.8,1.58-.85,3.79-1.04,5.38.01l.06,3.38c-3.74-1.63-5.12.91-5.16,4.3-.05,3.62,1.38,6.83,5.15,4.96l.02,3.59Z"/></g></svg>