<?xml version="1.0" encoding="UTF-8"?><svg id="Layer_2" xmlns="http://www.w3.org/2000/svg" viewBox="0 0 150 180"><defs><style>.cls-1{fill:none;}.cls-1,.cls-2,.cls-3,.cls-4{stroke-width:0px;}.cls-2{fill:#231f20;}.cls-3{fill:#8a002f;}.cls-4{fill:#efaf13;}</style></defs><g id="Layer_1-2"><rect class="cls-1" width="150" height="180"/><path class="cls-2" d="m50.62,173.08l-.22-1.49h-.08c-.83,1.05-2.24,1.8-3.98,1.8-2.71,0-4.23-1.96-4.23-4.01,0-3.4,3.02-5.12,8-5.09v-.22c0-.88-.36-2.35-2.74-2.35-1.33,0-2.71.42-3.62,1l-.66-2.21c1-.61,2.74-1.19,4.87-1.19,4.32,0,5.56,2.74,5.56,5.67v4.87c0,1.22.06,2.41.19,3.24h-3.07Zm-.44-6.58c-2.41-.06-4.7.47-4.7,2.52,0,1.33.86,1.94,1.94,1.94,1.36,0,2.35-.89,2.66-1.85.08-.25.11-.53.11-.75v-1.85Z"/><path class="cls-2" d="m69.15,169.04c0,1.6.06,2.93.11,4.04h-2.99l-.17-2.05h-.06c-.58.97-1.91,2.35-4.32,2.35s-4.7-1.47-4.7-5.87v-7.91h3.4v7.33c0,2.24.72,3.68,2.52,3.68,1.36,0,2.24-.97,2.6-1.83.11-.3.19-.66.19-1.05v-8.13h3.4v9.43Z"/><path class="cls-2" d="m72.83,153.44h3.43v19.64h-3.43v-19.64Z"/><path class="cls-2" d="m87.52,173.08l-.22-1.49h-.08c-.83,1.05-2.24,1.8-3.98,1.8-2.71,0-4.23-1.96-4.23-4.01,0-3.4,3.02-5.12,8-5.09v-.22c0-.88-.36-2.35-2.74-2.35-1.33,0-2.71.42-3.62,1l-.66-2.21c1-.61,2.74-1.19,4.87-1.19,4.32,0,5.56,2.74,5.56,5.67v4.87c0,1.22.06,2.41.19,3.24h-3.07Zm-.44-6.58c-2.41-.06-4.7.47-4.7,2.52,0,1.33.86,1.94,1.94,1.94,1.36,0,2.35-.89,2.66-1.85.08-.25.11-.53.11-.75v-1.85Z"/><path class="cls-2" d="m93.82,169.96c.78.47,2.24.97,3.46.97,1.49,0,2.16-.61,2.16-1.49s-.55-1.38-2.21-1.96c-2.63-.91-3.73-2.35-3.71-3.93,0-2.38,1.96-4.23,5.09-4.23,1.49,0,2.79.39,3.57.8l-.66,2.41c-.58-.33-1.66-.78-2.85-.78s-1.88.58-1.88,1.41.64,1.27,2.35,1.88c2.43.88,3.57,2.13,3.6,4.12,0,2.43-1.91,4.21-5.48,4.21-1.63,0-3.1-.39-4.09-.94l.66-2.46Z"/><path class="cls-4" d="m102.06,147.15c-13.12,1.82-24.96-.34-35.34-4.76h0c-10.22-4.42-17.32-10.34-23.33-15.62h0c-5.88-5.23-9.88-8.95-13.98-10.57h0c-4.08-1.51-7.41-.65-10.3,2.68h0c-1.81-12.93.49-24.45,5.17-34.71h0c4.78-10.04,11.07-16.97,16.74-22.83h0c5.64-5.72,9.65-9.66,11.5-13.77h0c1.75-4.11.9-7.71-2.49-10.92h0c13.23-1.02,24.86,1.99,34.99,7.13h0c9.82,5.27,16.56,11.54,22.13,17.14h0c5.61,5.42,9.34,9.12,13.44,10.55h0c4.08,1.24,7.73.05,10.84-3.74h0c1.06,13.14-1.86,24.57-6.85,34.48h0c-5.1,9.73-11.2,16.31-16.51,21.92h0c-5.22,5.48-8.71,9.28-10,13.19h0c-1.13,3.91.17,7.12,3.99,9.83Z"/><path class="cls-3" d="m15.43,76.3c3.45-.54,6.1.26,8.1,2.45,1.56-2.57,3.28-5.01,5.15-7.32,7.14-8.58,14.97-13.77,21.93-18.07,3.29-1.99,6.11-3.68,8.48-5.28-5.27.98-10.89,2.51-16.82,5.15-10.33,4.8-19.68,12.09-26.84,23.08Z"/><path class="cls-3" d="m125.88,107.48c-1.41,2-2.91,3.91-4.49,5.72-7.37,8.19-14.93,13.11-21.48,17.25-2.84,1.78-5.26,3.33-7.28,4.81,4.36-.9,9.01-2.18,13.98-4.17,10.34-4.34,20.1-11.17,27.97-21.83-3.61.66-6.51.04-8.69-1.78Z"/><path class="cls-3" d="m93.12,40.08l2.13-3.81c-.45,1.46-.71,3.27-.21,5.04,1.12,3.99,2.1,4.11,2.1,4.11l3.14-5.62c-.45,1.46-.71,3.26-.21,5.04,1.12,3.99,2.1,4.11,2.1,4.11l3.45-6.17c-.45,1.46-.71,3.26-.21,5.04,1.12,3.99,2.1,4.12,2.1,4.12l8.79-15.73c1.07.61,2.24,1.59,3.34,3.17,1.81,2.85,4.5,6.01,9.51,5.61,3.83-.31,4.66-2.64,4.66-2.64,0,0-6.55-4.9-8.06-10.3-1.06-3.81-1.45-7.06-1.63-9.86-.14-2.22-.16-4.16-.28-5.87-.06-.91-.16-1.76-.32-2.55-.8-3.89-2.7-5.64-4.93-6.39h-22.41c1.68,1.35,4.88,3.86,1.89,10.46-.25.55-.53,1.13-.83,1.73l-4.61,8.25s-2.74,4.14-1.61,8.13c1.12,3.99,2.1,4.11,2.1,4.11Z"/><path class="cls-3" d="m90.98,27.86l.19-.34-3.54-2.07c-.89-.52-2.03-.22-2.55.66l-7.38,12.59c1.32.44,2.62.91,3.9,1.42l3.58-6.11c.39-.67,1.25-.89,1.92-.5l1.98,1.16c-.26-3.55,1.89-6.81,1.89-6.81Z"/><path class="cls-3" d="m108.19,58.82c1.3,1.34,2.52,2.67,3.69,3.96.33.35.65.69.97,1.03l9.35-15.96c.52-.89.22-2.03-.66-2.55l-6.15-3.6-3.52,6.31.78.46c.67.39.89,1.25.5,1.92l-4.95,8.44Z"/><path class="cls-3" d="m47.64,79.39c4.1,0,5.26-3.92,5.26-4.6,0-.55-.37-.63-.53-.63-.31,0-.39.13-.76.76-.87,1.42-2.05,2.31-3.63,2.31-2,0-3.87-1.71-4.08-5.39l8.05-1.18c.32-.05.76-.11.76-.84,0-1.08-.89-4.68-5.05-4.68-3.24,0-4.58,2.37-4.87,2.92-.53.97-.89,2.34-.89,4.23,0,1.24.16,2.74.84,4.05,1.18,2.42,3.31,3.05,4.89,3.05Zm-.26-12.76c1.5,0,2.66,1.26,2.81,2.95l-6.29.97c.26-2.29,1.34-3.92,3.47-3.92Z"/><path class="cls-3" d="m60.4,71.39l-1.13-.53c-.95-.42-2.21-1-2.21-2.47,0-.76.55-1.92,1.97-1.92,1.26,0,1.74.92,2.03,1.42.24.45.47.89,1.16.89.53,0,.97-.37.97-1,0-.84-1.11-2.66-4.1-2.66s-4.18,1.79-4.18,3.66c0,2.42,1.82,3.29,3.97,4.31,1.16.55,2.52,1.18,2.52,2.79,0,.97-.63,2-2.02,2s-1.89-.74-2.26-1.31c-.16-.29-.26-.47-.34-.6-.16-.24-.47-.68-1.05-.68-.53,0-1.08.39-1.08,1.13s1.03,2.97,4.55,2.97c.66,0,2.08-.05,3.18-1.03.79-.71,1.24-1.81,1.24-2.92,0-2.47-1.84-3.37-3.21-4.05Z"/><path class="cls-3" d="m71.02,79.39c3.63,0,4.97-3.18,4.97-4.31,0-.58-.45-.63-.55-.63-.31,0-.42.18-.76.74-.42.68-1.29,2.1-3.13,2.1-1.97,0-3.95-1.87-3.95-5.73,0-3.13,1.6-4.92,3.42-4.92,1.55,0,2.08,1.08,2.63,2.16.21.42.58.79,1.1.79.4,0,1.08-.26,1.08-1.11,0-1.03-1.47-3.34-4.5-3.34-3.76,0-5.87,3.05-5.87,7.26,0,3.97,2.05,7,5.55,7Z"/><path class="cls-3" d="m83.57,79.39c3.89,0,6.02-3.68,5.97-7.21-.08-3.05-1.87-7.05-6-7.05-3.81,0-6.02,3.47-6.02,7.15s2.08,7.1,6.05,7.1Zm-.18-12.78c1.76,0,3.5,1.76,3.66,5.39.16,3.63-1.39,5.79-3.37,5.79s-3.71-2.18-3.71-5.86c0-3.13,1.34-5.31,3.42-5.31Z"/><path class="cls-3" d="m94.3,78.6v-19.23c0-.39-.11-.42-.5-.42h-1.32c-.34,0-.53.03-.53.42v19.23c0,.45.08.47.5.47h1.34c.34,0,.5-.05.5-.47Z"/><path class="cls-3" d="m97.34,75.81c0,3.58,3.89,3.58,4.6,3.58,1.13,0,2.71-.19,3.71-.71.97-.53,1.1-1.18,1.13-2.37v-6.97c-.03-1.39-.05-4.21-3.92-4.21-2.81,0-4.78,1.55-4.78,3.13,0,.84.68,1.1,1.05,1.1.79,0,1-.63,1.18-1.13.21-.53.68-1.71,2.21-1.71,1.97,0,1.97,1.79,1.97,2.82v1.34c-4.21,1.24-7.15,2.1-7.15,5.13Zm7.15.24c0,.71-.03,1.92-2.08,1.92-2.68,0-2.68-2.29-2.68-2.5,0-2.02,1.89-2.63,4.76-3.55v4.13Z"/><path class="cls-3" d="m37,103.01h1.35c.38,0,.46-.19.46-.49v-6.52c.51.35,1.35.95,2.92.95,4.41,0,6.3-4.54,6.3-7.95,0-2.9-1.3-6.68-6.3-6.68-2.33,0-4.44.87-5,1.73-.3.46-.3.89-.32,2.11v16.34c0,.43.19.51.59.51Zm1.81-16.77c0-1,0-2.43,2.35-2.43,2.81,0,4.38,2.41,4.38,5.65,0,3.79-1.84,5.87-4.03,5.87-.97,0-1.89-.4-2.71-.89v-8.19Z"/><path class="cls-3" d="m55.96,82.31c-3.92,0-6.19,3.57-6.19,7.36s2.14,7.3,6.22,7.3,6.2-3.79,6.14-7.41c-.08-3.14-1.92-7.25-6.17-7.25Zm.14,13.01c-1.95,0-3.81-2.25-3.81-6.03,0-3.22,1.38-5.46,3.52-5.46,1.81,0,3.6,1.81,3.76,5.54.16,3.73-1.43,5.95-3.46,5.95Z"/><path class="cls-3" d="m66.54,96.65c.32,0,.46-.03.49-.46v-10.66c.03-.7.05-1.89,1.65-1.89.79,0,1.14.32,1.49.68.46.51.65.73,1.14.73.68,0,1.11-.54,1.11-1.16,0-1.27-1.46-1.57-2.79-1.57-1.76,0-3.49.46-4.3.95-.59.35-.7.68-.7,1.62v11.31c0,.43.16.46.54.46h1.38Z"/><path class="cls-3" d="m80.99,96.03c0-.16-.05-.54-.54-.54-.11,0-.6.03-.7.03-.81,0-1.33-.38-1.62-.95-.3-.51-.3-.81-.32-1.95v-8.79h2.38c.41,0,.41-.08.41-.81,0-.35-.11-.38-.43-.38h-2.35v-3.3c0-.33-.03-.68-.3-.68-.08,0-.19.05-.46.3l-1.24,1.11c-.33.33-.41.46-.41.95v1.62h-1.43c-.41.03-.41.08-.41.78,0,.38.05.41.41.41h1.43v9.28c0,.84.03,1.73.65,2.57.57.73,1.54,1.24,2.84,1.24.62,0,2.11-.19,2.11-.89Z"/><path class="cls-3" d="m87.16,82.31c-2.89,0-4.92,1.6-4.92,3.22,0,.86.7,1.14,1.08,1.14.81,0,1.03-.65,1.22-1.16.22-.54.7-1.76,2.27-1.76,2.03,0,2.03,1.84,2.03,2.89v1.38c-4.33,1.27-7.36,2.16-7.36,5.27,0,3.68,4,3.68,4.73,3.68,1.16,0,2.79-.19,3.81-.73,1-.54,1.14-1.22,1.16-2.43v-7.17c-.03-1.43-.05-4.33-4.03-4.33Zm1.68,11.23c0,.73-.03,1.97-2.14,1.97-2.76,0-2.76-2.35-2.76-2.57,0-2.08,1.95-2.71,4.9-3.65v4.25Z"/><path class="cls-3" d="m94.55,83.83v9.28c0,.84.03,1.73.65,2.57.57.73,1.54,1.24,2.84,1.24.62,0,2.11-.19,2.11-.89,0-.16-.05-.54-.54-.54-.11,0-.6.03-.7.03-.81,0-1.33-.38-1.62-.95-.3-.51-.3-.81-.32-1.95v-8.79h2.38c.41,0,.41-.08.41-.81,0-.35-.11-.38-.43-.38h-2.35v-3.3c0-.33-.03-.68-.3-.68-.08,0-.19.05-.46.3l-1.24,1.11c-.32.33-.41.46-.41.95v1.62h-1.43c-.41.03-.41.08-.41.78,0,.38.05.41.41.41h1.43Z"/><path class="cls-3" d="m103.75,82.64h-1.41c-.46,0-.46.16-.46.51v13.01c0,.38,0,.49.41.49h1.46c.41,0,.54-.03.54-.49v-13.01c0-.43-.11-.51-.54-.51Z"/><path class="cls-3" d="m108.18,96.65h1.38c.35,0,.51-.06.51-.49v-19.77c0-.41-.11-.43-.51-.43h-1.35c-.35,0-.54.03-.54.43v19.77c0,.46.08.49.51.49Z"/><path class="cls-3" d="m57.85,99.52c-2.6,0-3.49.94-4.05,1.53-.38-.48-1.22-1.53-3.82-1.53-1.48,0-3.21.41-4.05,1.02-.61.46-.64.89-.64,1.76v10.24c0,.41.13.48.46.48h1.3c.41,0,.51-.08.51-.48v-8.91c0-.86.05-2.75,2.5-2.75s2.45,2.21,2.45,3.13v8.55c0,.43.15.46.51.46h1.32c.38,0,.43-.13.43-.48v-8.91c0-.79,0-1.45.71-2.09.31-.25.87-.59,1.76-.59,2.42,0,2.45,1.94,2.47,3.28v8.3c0,.43.13.48.46.48h1.35c.36-.03.46-.13.46-.48v-8.91c0-1.35.03-4.1-4.13-4.1Z"/><path class="cls-3" d="m74.28,99.83c-.48,0-1.32,0-1.4.03-.28.05-.31.26-.31.51v8.71c0,1.22,0,2.72-2.62,2.72-2.8,0-2.83-1.83-2.85-3.03v-8.45c0-.43-.15-.48-.51-.48h-1.32c-.38,0-.46.13-.46.46v9.01c0,1.27.23,2.24,1.17,3.03.61.49,1.55.99,3.62.99,2.37,0,3.79-.69,4.17-.89.97-.58,1.04-1.3,1.07-2.57v-9.55c-.03-.38-.15-.48-.56-.48Z"/><path class="cls-3" d="m82.71,105.58l-1.1-.51c-.92-.41-2.14-.97-2.14-2.39,0-.74.54-1.86,1.91-1.86,1.22,0,1.68.89,1.96,1.37.23.43.46.87,1.12.87.51,0,.94-.36.94-.97,0-.81-1.07-2.57-3.97-2.57s-4.05,1.73-4.05,3.54c0,2.34,1.76,3.18,3.85,4.18,1.12.54,2.44,1.15,2.44,2.7,0,.94-.61,1.94-1.96,1.94s-1.83-.71-2.19-1.27c-.15-.28-.25-.46-.33-.59-.15-.23-.46-.66-1.02-.66-.51,0-1.04.38-1.04,1.09s.99,2.88,4.4,2.88c.64,0,2.01-.05,3.08-.99.76-.69,1.2-1.76,1.2-2.83,0-2.39-1.78-3.26-3.11-3.92Z"/><path class="cls-3" d="m90.06,99.83h-1.32c-.43,0-.43.15-.43.48v12.25c0,.36,0,.46.38.46h1.37c.38,0,.51-.03.51-.46v-12.25c0-.41-.1-.48-.51-.48Z"/><path class="cls-3" d="m102.57,108.54c-.31,0-.41.18-.74.71-.41.66-1.25,2.04-3.03,2.04-1.91,0-3.82-1.81-3.82-5.55,0-3.03,1.55-4.76,3.31-4.76,1.5,0,2.01,1.04,2.55,2.09.2.41.56.76,1.07.76.38,0,1.04-.25,1.04-1.07,0-.99-1.43-3.23-4.36-3.23-3.64,0-5.68,2.95-5.68,7.03,0,3.84,1.99,6.77,5.37,6.77s4.81-3.08,4.81-4.18c0-.56-.43-.61-.53-.61Z"/><path class="cls-3" d="m109.8,99.52c-2.73,0-4.63,1.5-4.63,3.03,0,.81.66,1.07,1.02,1.07.77,0,.97-.61,1.15-1.09.2-.51.66-1.65,2.14-1.65,1.91,0,1.91,1.73,1.91,2.72v1.3c-4.07,1.2-6.93,2.04-6.93,4.96,0,3.46,3.77,3.46,4.46,3.46,1.1,0,2.62-.18,3.59-.69.94-.51,1.07-1.15,1.1-2.29v-6.75c-.03-1.35-.05-4.07-3.79-4.07Zm1.58,10.57c0,.69-.02,1.86-2.01,1.86-2.6,0-2.6-2.22-2.6-2.42,0-1.96,1.83-2.55,4.61-3.44v4Z"/><path class="cls-3" d="m34.7,101.04h-.81c-.27,0-.3.1-.3.35v3.93c-.41-.26-.91-.53-1.74-.53-2.47,0-3.75,2.39-3.75,4.58,0,2.63,1.48,4.07,3.75,4.07.85,0,2.41-.22,2.95-.99.22-.3.22-.59.22-.89v-10.2c.02-.29-.08-.32-.32-.32Zm-1.12,10.15c-.02.46-.03,1.26-1.42,1.26-1.53,0-2.63-1.24-2.63-3.46,0-1.93,1.05-3.37,2.52-3.37.8,0,1.23.34,1.53.59v4.98Z"/><path class="cls-3" d="m42.76,110.26c-.19,0-.24.08-.46.46-.53.86-1.25,1.4-2.2,1.4-1.21,0-2.35-1.04-2.47-3.27l4.88-.72c.19-.03.46-.06.46-.51,0-.65-.54-2.84-3.06-2.84-1.96,0-2.78,1.44-2.95,1.77-.32.59-.54,1.42-.54,2.57,0,.75.09,1.66.51,2.46.72,1.47,2.01,1.85,2.97,1.85,2.49,0,3.19-2.38,3.19-2.79,0-.33-.22-.38-.32-.38Zm-3.03-4.56c.91,0,1.61.77,1.71,1.79l-3.81.59c.16-1.39.81-2.38,2.11-2.38Z"/><path class="cls-3" d="m87.45,80.92c-.19.19-.21.36-.21.47,0,.34.23.49.41.49.15,0,.26-.09.36-.15l2.08-1.47c.17-.13.39-.34.39-.79,0-.41-.24-.77-.58-.77-.24,0-.43.19-.56.32l-1.89,1.91Z"/><path class="cls-3" d="m70.91,97.78l-1.88,1.91c-.19.19-.21.36-.21.47,0,.34.23.49.41.49.15,0,.26-.09.36-.15l2.08-1.48c.17-.13.39-.34.39-.79,0-.41-.24-.77-.58-.77-.24,0-.43.19-.56.32Z"/></g></svg>