<?xml version="1.0" encoding="UTF-8"?><svg id="Layer_2" xmlns="http://www.w3.org/2000/svg" viewBox="0 0 150 180"><defs><style>.cls-1{fill:none;}.cls-1,.cls-2,.cls-3,.cls-4,.cls-5,.cls-6,.cls-7{stroke-width:0px;}.cls-2{fill:#fff;}.cls-3{fill:#231f20;}.cls-4,.cls-5{fill:#8a002f;}.cls-4,.cls-7{fill-rule:evenodd;}.cls-6,.cls-7{fill:#efaf13;}</style></defs><g id="Layer_1-2"><rect class="cls-1" width="150" height="180"/><path class="cls-3" d="m30.3,169.96c.77.47,2.24.97,3.46.97,1.49,0,2.16-.61,2.16-1.49s-.55-1.38-2.21-1.96c-2.63-.91-3.73-2.35-3.71-3.93,0-2.38,1.96-4.23,5.09-4.23,1.49,0,2.79.39,3.57.8l-.66,2.41c-.58-.33-1.66-.78-2.85-.78s-1.88.58-1.88,1.41.64,1.27,2.35,1.88c2.43.88,3.57,2.13,3.6,4.12,0,2.43-1.91,4.21-5.48,4.21-1.63,0-3.1-.39-4.09-.94l.66-2.46Z"/><path class="cls-3" d="m42,153.44h3.43v8.02h.06c.42-.64.97-1.16,1.69-1.55.66-.39,1.47-.61,2.32-.61,2.3,0,4.7,1.52,4.7,5.84v7.94h-3.4v-7.55c0-1.96-.72-3.43-2.6-3.43-1.33,0-2.27.88-2.63,1.91-.11.28-.14.64-.14,1.02v8.05h-3.43v-19.64Z"/><path class="cls-3" d="m70.63,166.22c0,4.95-3.49,7.17-6.92,7.17-3.82,0-6.75-2.63-6.75-6.94s2.9-7.14,6.97-7.14,6.69,2.82,6.69,6.92Zm-10.15.14c0,2.6,1.27,4.56,3.35,4.56,1.94,0,3.29-1.91,3.29-4.62,0-2.1-.94-4.51-3.26-4.51s-3.38,2.32-3.38,4.56Z"/><path class="cls-3" d="m75.25,159.61l1.41,6.11c.3,1.44.61,2.9.86,4.37h.06c.28-1.47.72-2.96,1.11-4.34l1.74-6.14h2.77l1.69,5.98c.42,1.58.77,3.04,1.08,4.51h.06c.22-1.47.53-2.93.89-4.51l1.49-5.98h3.35l-4.23,13.47h-3.15l-1.6-5.48c-.42-1.41-.72-2.68-1.02-4.32h-.06c-.28,1.66-.64,2.99-1.02,4.32l-1.72,5.48h-3.18l-3.98-13.47h3.49Z"/><path class="cls-3" d="m93.42,169.96c.77.47,2.24.97,3.46.97,1.49,0,2.16-.61,2.16-1.49s-.55-1.38-2.21-1.96c-2.63-.91-3.73-2.35-3.71-3.93,0-2.38,1.96-4.23,5.09-4.23,1.49,0,2.79.39,3.57.8l-.66,2.41c-.58-.33-1.66-.78-2.85-.78s-1.88.58-1.88,1.41.64,1.27,2.35,1.88c2.43.88,3.57,2.13,3.6,4.12,0,2.43-1.91,4.21-5.48,4.21-1.63,0-3.1-.39-4.09-.94l.66-2.46Z"/><path class="cls-2" d="m116.48,88.4c2.31,0,4.61,0,6.92,0,3.7.01,6.22,2.29,6.35,6,.13,3.82.05,7.66.03,11.48,0,1.69-.85,2.47-2.59,2.63-5.6.51-9.53,4.62-9.59,9.85-.06,5.66,3.58,9.72,9.48,10.41,1.93.23,2.75,1.1,2.71,3.03-.06,3.52.02,7.03-.03,10.55-.06,4.27-2.44,6.54-6.77,6.54-34.62,0-69.24,0-103.86,0-4.4,0-6.59-2.17-6.61-6.58-.02-3.52.1-7.04-.04-10.55-.08-2.16.86-2.85,2.85-3.02,4.9-.41,8.51-4,9.07-8.83.58-5.03-2.1-9.31-6.84-10.93-.22-.08-.43-.2-.65-.25-1.32-.34-3.32-.26-3.82-1.08-.74-1.24-.52-3.11-.55-4.71-.06-2.97-.05-5.94,0-8.91.06-3.11,2.62-5.98,5.67-5.55,6.6.94,11.06-1.86,15.7-6.32,18.3-17.58,37.01-34.74,55.57-52.05,1.48-1.38,2.99-2.74,4.48-4.11,2.77-2.56,6.31-2.54,8.92.17,2.54,2.64,4.94,5.42,7.51,8.05,1.38,1.42,1.35,2.49.02,3.97-4.99,5.53-3.02,13.9,3.96,16.45,3.37,1.23,6.81.94,9.7-1.48,1.67-1.4,2.91-1.34,4.34.31,2.31,2.64,4.8,5.13,7.14,7.75,2.79,3.11,2.57,6.39-.49,9.24-5.71,5.32-11.4,10.66-17.12,15.97-.55.51-1.23.88-1.85,1.32l.39.66Zm-17,56.73c0-1.42-.04-2.58.01-3.73.06-1.29.59-2.54,2.03-2.23.74.16,1.55,1.32,1.78,2.18.31,1.13.08,2.41.08,3.78,6.97,0,13.6.07,20.22-.1.79-.02,2.15-1.34,2.21-2.13.25-3.39.11-6.82.11-10.17-8.72-1.95-11.63-8-12.06-12.48-.29-3.1.21-6.02,1.82-8.75,2.32-3.94,5.98-5.91,10.27-6.95,0-3.3,0-6.42,0-9.54,0-1.51-.63-2.77-2.21-2.79-6.7-.09-13.4-.04-20.23-.04-.06,1.33-.08,2.49-.18,3.64-.1,1.19-.21,2.45-1.88,2.41-1.73-.04-1.92-1.3-1.94-2.62-.02-1.07,0-2.15,0-3.34-.93-.05-1.61-.13-2.3-.13-19.37-.01-38.74-.02-58.12-.02-6.56,0-13.12.03-19.69.02-1.89,0-3.17.5-3.11,2.77.09,3.19.02,6.39.02,9.54,8.21,2.93,12.28,7.32,12.06,13.87-.09,2.73-1.08,5.66-2.42,8.08-1.99,3.61-5.58,5.44-9.64,6.26,0,2.99,0,5.8,0,8.6,0,3.63.22,3.85,3.85,3.85,25.55,0,51.09,0,76.64,0,.77,0,1.54,0,2.69,0Zm-20.32-100.13c-15.52,14.47-30.79,28.72-46.53,43.4,1.36,0,2.1,0,2.85,0,7.03,0,14.06.02,21.09.02,17.42,0,34.84.02,52.25,0,.71,0,1.59-.23,2.1-.68,1.45-1.28,2.74-2.74,4.18-4.21-.78-.85-1.75-1.59-2.27-2.58-.42-.8-.29-1.89-.4-2.85,1.04.07,2.26-.17,3.08.29,1.01.57,1.68,1.73,2.55,2.68,4.97-4.62,9.76-9.09,14.57-13.53,1.18-1.09,1.38-2.27.3-3.47-2.24-2.48-4.54-4.91-6.79-7.32-7.27,3.58-13.45,3.2-17.88-1.56-1.83-1.97-3.44-4.59-4.03-7.17-.96-4.16-.2-8.35,2.72-11.81-2.35-2.52-4.54-4.86-6.71-7.2-.95-1.03-2.04-1.62-3.24-.52-4.97,4.58-9.9,9.2-14.97,13.91.94,1.04,1.93,1.79,2.43,2.79.41.8.66,2.19.24,2.79-.84,1.2-2.04.7-2.96-.29-.79-.85-1.59-1.68-2.57-2.7Z"/><path class="cls-6" d="m99.48,145.13c-1.14,0-1.91,0-2.69,0-25.55,0-51.09,0-76.64,0-3.63,0-3.85-.22-3.85-3.85,0-2.81,0-5.62,0-8.6,4.06-.81,7.65-2.65,9.64-6.26,1.34-2.42,2.33-5.35,2.42-8.08.22-6.55-3.85-10.94-12.06-13.87,0-3.15.07-6.35-.02-9.54-.07-2.28,1.22-2.78,3.11-2.77,6.56,0,13.12-.02,19.69-.02,19.37,0,38.74,0,58.12.02.69,0,1.37.07,2.3.13,0,1.19-.02,2.27,0,3.34.02,1.33.21,2.58,1.94,2.62,1.67.04,1.78-1.23,1.88-2.41.1-1.15.12-2.31.18-3.64,6.83,0,13.53-.05,20.23.04,1.58.02,2.21,1.28,2.21,2.79,0,3.12,0,6.24,0,9.54-4.3,1.04-7.95,3-10.27,6.95-1.61,2.73-2.11,5.66-1.82,8.75.42,4.49,3.33,10.53,12.06,12.48,0,3.35.14,6.78-.11,10.17-.06.79-1.42,2.11-2.21,2.13-6.62.17-13.25.1-20.22.1,0-1.37.23-2.65-.08-3.78-.23-.86-1.04-2.02-1.78-2.18-1.43-.31-1.96.94-2.03,2.23-.06,1.16-.01,2.32-.01,3.73Zm-.01-26.44c.09,1.56-.39,3.77,1.89,3.82,2.51.06,2.04-2.24,2.03-3.88-.01-1.56.48-3.79-1.84-3.84-2.49-.06-1.98,2.24-2.08,3.9Zm3.97,12.1c-.25-1.52.54-3.91-2.08-3.83-2.3.07-1.88,2.28-1.89,3.84-.01,1.64-.41,3.94,2.08,3.88,2.34-.06,1.68-2.33,1.89-3.89Zm-.14-24.36c-.25-1.43.61-3.79-1.89-3.72-2.47.07-2.02,2.36-1.82,4.01.17,1.39-.53,3.65,1.85,3.59,2.49-.06,1.64-2.32,1.86-3.88Z"/><path class="cls-5" d="m79.16,45c.97,1.02,1.78,1.85,2.57,2.7.92.99,2.11,1.49,2.96.29.42-.6.17-1.99-.24-2.79-.51-1-1.49-1.75-2.43-2.79,5.06-4.71,10-9.34,14.97-13.91,1.21-1.11,2.29-.51,3.24.52,2.18,2.34,4.36,4.68,6.71,7.2-2.93,3.46-3.69,7.66-2.72,11.81.6,2.58,2.2,5.2,4.03,7.17,4.43,4.76,10.61,5.13,17.88,1.56,2.25,2.41,4.55,4.84,6.79,7.32,1.08,1.2.87,2.38-.3,3.47-4.8,4.45-9.59,8.91-14.57,13.53-.87-.96-1.54-2.12-2.55-2.68-.82-.46-2.04-.22-3.08-.29.11.96-.02,2.05.4,2.85.52.99,1.49,1.73,2.27,2.58-1.44,1.47-2.73,2.92-4.18,4.21-.51.45-1.39.67-2.1.68-17.42.03-34.84.02-52.25,0-7.03,0-14.06-.01-21.09-.02-.75,0-1.49,0-2.85,0,15.74-14.68,31.01-28.93,46.53-43.4Zm23.19,19.08c-1.66-1.49-3.15-2.94-4.79-4.19-.29-.22-1.52.22-1.76.66-.31.56-.33,1.62.02,2.12.84,1.2,1.89,2.29,3.01,3.24.43.36,1.38.45,1.92.23.52-.21.8-.99,1.59-2.06Zm8.42,9.06c-1.76-1.59-3.3-3.08-4.98-4.38-.25-.2-1.46.29-1.69.74-.29.56-.3,1.6.04,2.09.85,1.19,1.9,2.26,3.02,3.2.44.37,1.36.5,1.91.31.53-.19.86-.94,1.69-1.94Zm-16.53-17.82c-1.81-1.59-3.38-3.08-5.1-4.38-.26-.2-1.48.29-1.71.74-.29.56-.27,1.6.08,2.1.84,1.19,1.87,2.28,3,3.19.47.38,1.47.42,2.1.21.53-.18.86-.94,1.62-1.87Z"/><path class="cls-2" d="m99.47,118.69c.09-1.66-.41-3.96,2.08-3.9,2.31.05,1.82,2.29,1.84,3.84.01,1.64.48,3.94-2.03,3.88-2.28-.05-1.8-2.26-1.89-3.82Z"/><path class="cls-2" d="m103.45,130.79c-.2,1.56.45,3.83-1.89,3.89-2.49.06-2.1-2.24-2.08-3.88.01-1.55-.41-3.76,1.89-3.84,2.62-.08,1.83,2.31,2.08,3.83Z"/><path class="cls-2" d="m103.3,106.43c-.22,1.56.64,3.81-1.86,3.88-2.39.06-1.69-2.2-1.85-3.59-.2-1.64-.65-3.93,1.82-4.01,2.5-.08,1.64,2.29,1.89,3.72Z"/><path class="cls-2" d="m102.35,64.07c-.79,1.07-1.07,1.85-1.59,2.06-.54.22-1.49.13-1.92-.23-1.12-.95-2.17-2.04-3.01-3.24-.35-.5-.33-1.56-.02-2.12.24-.44,1.47-.88,1.76-.66,1.64,1.25,3.12,2.7,4.79,4.19Z"/><path class="cls-2" d="m110.76,73.13c-.83,1-1.16,1.75-1.69,1.94-.55.2-1.47.06-1.91-.31-1.12-.94-2.18-2.01-3.02-3.2-.35-.49-.34-1.53-.04-2.09.23-.45,1.44-.93,1.69-.74,1.68,1.31,3.21,2.79,4.98,4.38Z"/><path class="cls-2" d="m94.23,55.31c-.76.93-1.09,1.69-1.62,1.87-.62.21-1.62.17-2.1-.21-1.13-.91-2.16-2.01-3-3.19-.35-.5-.37-1.54-.08-2.1.23-.45,1.44-.94,1.71-.74,1.71,1.3,3.29,2.79,5.1,4.38Z"/><path class="cls-4" d="m67.66,107.6c-.56.32-1.07.71-1.59,1.08-3.59,2.55-7.61,5.54-11.2,8.09-.51.36-.9.59-1.03.81-.21.37.1.65.82.65.9,0,1.23,0,2.34,0,.81,0,1.61.72,1.61,1.53v11.77c.17,1.08.99,1.9,1.96,1.9h17.55c.97,0,1.78-.82,1.96-1.9v-11.77c0-.81.8-1.53,1.61-1.53,1.11,0,1.44,0,2.34,0,.71,0,1.03-.28.81-.65-.13-.22-.52-.45-1.03-.81-3.59-2.55-7.61-5.54-11.2-8.09-.52-.37-1.04-.76-1.59-1.08-1.08-.63-2.27-.63-3.35,0"/><path class="cls-7" d="m76.55,111.53c-.42-.3-.83-.61-1.25-.91v2.22c0,.46.04.74-.49.6-.57-.21-1.25-.29-1.98-.21-2.08.24-3.76,1.75-3.76,3.37s1.68,2.74,3.76,2.5c1.97-.23,3.72-1.44,3.72-3.77v-3.81Z"/><path class="cls-4" d="m75.31,110.63v-6.56c0-.86.65-1.12,1.36-1.26l7.18-1.42v3.99c-2.14.43-4.27.86-6.41,1.29-.47.09-.89.4-.89.93v3.94c-.41-.3-.82-.61-1.24-.91"/></g></svg>